<?xml version="1.0" encoding="utf-8"?>
<!-- Generator: Adobe Illustrator 18.0.0, SVG Export Plug-In . SVG Version: 6.00 Build 0)  -->
<!DOCTYPE svg PUBLIC "-//W3C//DTD SVG 1.1//EN" "http://www.w3.org/Graphics/SVG/1.1/DTD/svg11.dtd">
<svg version="1.1" id="Layer_1" xmlns="http://www.w3.org/2000/svg" xmlns:xlink="http://www.w3.org/1999/xlink" x="0px" y="0px"
	 viewBox="0 0 1200 313" enable-background="new 0 0 1200 313" xml:space="preserve">
<g transform="translate(0.000000,313.000000) scale(0.100000,-0.100000)">
	<path fill="#62170F" d="M7725,2945c-187-142-230-179-229-197c1-13,5-113,8-223l7-200l-34,71c-58,120-135,224-253,342
		c-103,103-115,112-141,106c-15-4-33-12-39-18c-21-21-245-529-237-535c4-4,67-46,138-93c136-89,276-210,262-224c-5-5-107-10-227-12
		c-243-4-221-10-235,68c-3,19-18,71-32,115c-58,181-152,309-271,367c-63,31-73,33-172,33c-93,0-112-3-162-27
		c-126-59-223-196-247-349c-21-132-25-143-51-156c-16-8-70-13-152-13h-127l-11,58c-37,189-118,344-250,480c-57,58-97,69-123,32
		c-8-12-52-107-98-212l-83-191l-22,89c-58,236-161,410-348,592c-81,79-87,83-118,77c-18-4-34-8-34-9c-6-6-245-568-242-570
		c45-27,168-110,213-145c77-58,195-171,195-186c0-24-447-36-455-13c-2,7-15,55-29,106c-56,202-160,349-288,408c-57,26-73,29-168,29
		c-99,0-110-2-172-33c-74-36-137-98-181-180c-32-58-67-187-67-244c0-27-7-46-23-62c-23-23-28-23-298-30c-150-3-713-4-1249-1
		c-595,2-1017,0-1082-5c-295-27-479-160-556-400C9,1490,0,1410,0,1229c0-145,3-179,25-265c81-320,284-500,655-582l115-25l710-7
		c581-6,720-10,765-22c150-40,270-153,270-253c0-73,43-100,77-48c16,24,18,52,17,238c0,200-2,214-28,300c-37,121-79,197-153,275
		c-69,74-142,121-240,157c-155,56-144,55-898,62l-700,6l-57,27c-59,27-100,75-113,131l-7,27l363,1c2322,3,2402,4,2444,22
		c45,20,106,76,136,124l20,32l58-58c82-82,152-114,261-119c146-7,245,37,337,151l38,47l3-77c2-64,7-82,25-102c22-23,23-23,177-18
		c251,9,375,53,490,172c100,105,164,271,177,460l6,89l69-74c84-90,168-213,168-244c0-54-141-196-350-352c-129-96-131-98-128-133
		c3-34,12-42,238-202c229-163,236-166,265-155c60,24,177,209,229,363l23,68l154,8c85,4,170,12,190,17c42,11,118,75,149,124l20,34
		l60-59c35-35,83-71,117-87c52-24,69-27,168-27c100,0,115,2,167,28c38,19,79,52,123,99l65,70v-79c0-72,2-82,25-103
		c24-23,27-23,178-16c101,4,181,13,231,26c190,48,316,161,381,342l21,59l13-55c30-135,119-254,231-311c96-49,155-55,527-55
		c334,0,344,1,407,23c35,13,94,46,131,73s73,53,80,58c8,6,32-5,71-31c225-153,367-163,492-35c26,26,62,75,79,108l32,59l1-127v-128
		l223-1c122,0,557,0,967,0c711,1,749,2,823,21c241,61,341,201,377,525c21,189,10,374-31,540c-26,103-115,286-169,348
		c-70,79-71,78-237-173c-106-160-143-223-143-246c0-25,13-45,65-98c90-92,165-184,165-202c0-12-130-14-990-12l-991,3l-30,89
		c-88,263-317,497-727,743c-123,74-158,80-200,34c-16-16-68-127-126-267l-98-238l26-18l25-19l-34-44c-40-54-58-126-53-218l3-67h-172
		h-173l-31,28c-21,19-34,42-40,72c-4,25-8,268-9,541v496l-25,11c-14,7-29,12-33,11C7958,3119,7852,3040,7725,2945z M8938,2260
		c49-30,72-75,72-141c0-163-193-218-274-79C8658,2173,8809,2338,8938,2260z M9310,1968c101-69,91-227-17-279c-131-63-256,75-195,214
		C9135,1987,9237,2018,9310,1968z M3831,1887c101-67,91-245-16-297c-23-11-50-20-60-20s-37,9-60,20c-55,27-85,80-85,151
		c0,99,60,169,145,169C3782,1910,3809,1902,3831,1887z M6427,1890c90-55,98-212,14-283c-47-39-91-44-148-16c-143,72-101,319,55,319
		C6377,1910,6407,1902,6427,1890z"/>
	<path fill="#62170F" d="M11240,2894c-41-18-96-68-116-105c-87-167,27-372,206-372c258,0,331,367,95,474
		C11376,2914,11288,2915,11240,2894z"/>
</g>
</svg>
