<?xml version="1.0" standalone="no"?>
<!DOCTYPE svg PUBLIC "-//W3C//DTD SVG 20010904//EN"
 "http://www.w3.org/TR/2001/REC-SVG-20010904/DTD/svg10.dtd">
<svg version="1.0" xmlns="http://www.w3.org/2000/svg"
 width="1291.000000pt" height="398.000000pt" viewBox="0 0 1291.000000 398.000000"
 preserveAspectRatio="xMidYMid meet">

<g transform="translate(0.000000,398.000000) scale(0.100000,-0.100000)"
fill="#000000" stroke="none">
<path d="M8181 3794 l-233 -177 6 -61 c3 -33 8 -135 11 -226 l6 -165 -26 59
c-59 131 -157 267 -277 382 -92 88 -111 99 -144 82 -22 -11 -48 -59 -146 -272
-65 -143 -118 -263 -118 -266 0 -4 55 -43 123 -87 128 -85 260 -190 277 -223
9 -17 6 -19 -32 -25 -24 -3 -126 -5 -228 -3 l-184 3 -9 45 c-47 250 -175 453
-322 511 -49 19 -79 23 -160 24 -89 0 -107 -3 -160 -28 -138 -65 -229 -204
-256 -392 -5 -38 -12 -77 -14 -86 -10 -30 -53 -39 -180 -39 l-125 0 -6 28
c-52 238 -106 348 -246 497 -65 70 -100 82 -130 48 -9 -10 -53 -103 -98 -208
-45 -104 -83 -191 -84 -192 -1 -2 -14 45 -29 104 -51 205 -176 413 -347 577
-75 71 -85 78 -113 72 -17 -3 -32 -7 -33 -9 -5 -5 -244 -558 -244 -565 0 -4
21 -20 48 -36 144 -90 362 -271 362 -302 0 -13 -155 -24 -335 -24 l-123 0 -7
37 c-4 21 -18 74 -32 118 -56 179 -152 308 -271 367 -63 31 -73 33 -172 33
-94 0 -111 -3 -167 -29 -110 -50 -200 -169 -237 -313 -9 -34 -16 -76 -16 -94
0 -56 -11 -79 -44 -97 -29 -15 -130 -17 -1336 -17 -1465 -1 -1381 3 -1548 -75
-144 -68 -242 -187 -293 -360 -19 -64 -23 -106 -26 -285 -4 -189 -3 -219 16
-300 12 -50 42 -133 68 -185 38 -79 60 -109 127 -176 123 -123 242 -182 466
-232 l115 -25 710 -7 c621 -6 717 -9 768 -23 159 -46 266 -152 267 -263 0 -66
44 -87 77 -37 16 24 18 52 18 223 -1 223 -17 315 -82 449 -64 133 -208 256
-358 305 -152 49 -150 49 -885 55 l-695 6 -60 30 c-37 19 -69 43 -83 64 -23
36 -38 78 -30 87 3 2 625 5 1384 7 1535 3 1410 -3 1493 72 22 20 50 51 61 69
l19 32 61 -58 c34 -33 86 -71 118 -86 51 -24 69 -27 167 -27 102 0 114 2 169
30 37 19 81 54 122 98 l64 69 0 -86 c0 -120 2 -121 203 -113 84 4 181 14 216
22 266 64 420 274 447 614 l7 85 55 -59 c74 -81 171 -211 178 -241 15 -58
-111 -192 -351 -372 -184 -138 -187 -121 62 -297 316 -224 284 -206 322 -187
61 29 198 255 232 383 l12 46 178 9 c175 9 178 10 221 40 24 16 60 53 81 81
l38 51 51 -54 c32 -34 76 -67 117 -87 61 -30 72 -32 171 -32 99 0 110 2 172
33 47 23 84 51 123 94 l55 61 0 -72 c0 -64 3 -75 26 -98 l26 -26 159 7 c180 8
277 28 370 78 109 57 196 162 245 292 l18 48 16 -60 c49 -179 167 -296 342
-337 49 -11 139 -15 410 -15 331 0 350 1 405 22 65 24 118 55 180 105 l42 35
90 -56 c136 -84 197 -107 280 -107 33 0 69 8 95 20 53 26 125 100 170 175 l36
60 0 -127 0 -127 223 0 c1290 -3 1700 0 1769 15 264 55 369 211 400 594 25
308 -32 570 -166 770 -56 83 -94 113 -123 96 -18 -10 -153 -208 -254 -370 -38
-61 -48 -86 -44 -105 4 -14 46 -65 94 -115 93 -96 141 -155 141 -173 0 -9
-249 -12 -993 -12 l-994 0 -12 53 c-16 72 -90 219 -150 297 -112 149 -310 313
-560 467 -155 95 -191 104 -233 55 -13 -15 -68 -135 -123 -266 l-99 -239 27
-21 28 -22 -22 -20 c-50 -45 -86 -174 -73 -260 l6 -44 -166 0 c-125 0 -174 4
-195 14 -56 30 -56 25 -59 597 l-3 526 -25 12 c-14 6 -28 11 -32 11 -4 0 -112
-80 -241 -176z m1216 -684 c98 -59 94 -228 -7 -281 -93 -50 -205 14 -217 124
-15 126 120 221 224 157z m371 -290 c68 -42 92 -165 45 -228 -51 -68 -116 -87
-186 -53 -108 52 -118 210 -17 279 43 29 112 30 158 2z m-5481 -80 c90 -55 98
-212 14 -283 -43 -36 -87 -43 -139 -22 -109 44 -132 197 -42 287 33 34 43 38
86 38 31 0 61 -7 81 -20z m2599 1 c39 -23 74 -94 74 -147 -1 -82 -56 -157
-126 -170 -47 -9 -122 30 -149 76 -42 74 -18 197 48 239 41 27 112 27 153 2z"/>
<path d="M11700 3744 c-114 -49 -174 -185 -135 -307 34 -107 117 -171 224
-170 97 0 167 46 215 140 58 116 0 280 -119 334 -49 23 -137 24 -185 3z"/>
<path d="M12670 2811 c-45 -23 -51 -56 -16 -87 14 -13 30 -24 35 -24 11 0 19
-28 19 -68 1 -16 -7 -26 -24 -33 -25 -9 -29 -33 -6 -35 7 -1 17 -2 22 -3 6 0
10 -13 9 -28 0 -16 -3 -22 -6 -15 -2 6 -11 12 -18 12 -27 0 -27 -22 -1 -45 28
-24 34 -45 12 -45 -7 0 -19 -7 -26 -15 -10 -12 -8 -16 14 -25 23 -9 26 -14 23
-47 -3 -30 -9 -39 -28 -43 -15 -4 -25 -14 -27 -28 -3 -18 1 -22 25 -22 26 0
28 -3 28 -43 0 -30 -4 -42 -15 -42 -8 0 -25 -10 -39 -23 -22 -20 -23 -25 -11
-47 16 -31 64 -49 92 -34 15 8 18 17 13 40 -8 36 4 37 43 4 18 -15 32 -39 36
-60 8 -42 23 -53 40 -29 11 15 11 24 -4 56 -17 39 -66 88 -87 88 -6 0 -15 5
-19 12 -4 7 -3 8 4 4 7 -4 12 -1 12 8 0 8 -4 17 -10 21 -5 3 -7 12 -4 19 3 8
0 17 -5 21 -6 3 -9 11 -6 16 4 5 1 9 -5 9 -6 0 -4 10 6 25 12 18 14 36 9 71
-4 31 -2 51 7 62 10 12 10 16 1 19 -7 3 -13 11 -13 18 0 7 -6 16 -12 18 -10 4
-9 8 2 16 15 10 22 71 8 71 -4 0 -3 11 3 24 15 33 3 93 -21 109 -11 6 -20 15
-20 20 0 4 4 6 9 3 5 -3 16 5 25 19 18 28 10 58 -20 69 -20 8 -14 9 -54 -13z
m40 -701 c0 -5 -7 -10 -15 -10 -8 0 -15 5 -15 10 0 6 7 10 15 10 8 0 15 -4 15
-10z"/>
<path d="M121 2466 c-108 -11 -135 -26 -88 -47 18 -8 59 -8 162 2 142 14 173
27 114 48 -36 13 -46 12 -188 -3z"/>
<path d="M256 2391 c-4 -5 -4 -16 -1 -24 9 -22 65 -59 81 -53 20 8 17 50 -4
69 -20 18 -67 23 -76 8z"/>
<path d="M210 2365 c-19 -22 -4 -59 35 -89 19 -15 35 -36 35 -47 0 -14 7 -19
30 -19 25 0 30 4 30 24 0 14 -4 27 -10 31 -5 3 -7 12 -4 19 5 14 -29 32 -51
28 -6 -1 -15 12 -20 30 -12 37 -27 45 -45 23z"/>
<path d="M12565 2330 c-3 -5 -3 -15 1 -21 4 -7 -2 -9 -17 -7 -27 3 -38 -24
-19 -47 13 -15 90 -18 90 -3 0 16 -28 75 -38 82 -6 3 -13 2 -17 -4z"/>
<path d="M280 2165 c0 -29 -18 -39 -102 -55 -61 -12 -71 -22 -37 -40 14 -8 34
-8 67 -1 34 7 49 6 54 -2 11 -18 10 -67 -2 -67 -5 0 -10 -7 -10 -15 0 -19 60
-21 78 -3 17 17 15 68 -5 90 -15 17 -15 19 0 36 10 10 17 33 17 50 0 29 -3 32
-30 32 -25 0 -30 -4 -30 -25z"/>
<path d="M4387 2002 c-36 -40 -8 -97 45 -90 24 4 28 1 28 -19 0 -17 -6 -23
-23 -23 -33 0 -67 -28 -67 -55 0 -32 25 -55 61 -55 24 0 29 -4 29 -24 0 -20
-6 -24 -39 -30 -47 -7 -54 -15 -36 -39 10 -14 18 -16 39 -7 64 24 136 -6 136
-56 0 -31 17 -31 32 1 14 30 -7 67 -52 90 l-30 16 0 154 0 155 -53 0 c-40 0
-58 -5 -70 -18z m73 -27 c0 -19 -36 -39 -45 -25 -11 18 3 40 25 40 11 0 20 -7
20 -15z m0 -150 c0 -19 -36 -39 -45 -25 -11 18 3 40 25 40 11 0 20 -7 20 -15z"/>
<path d="M3361 1986 c-18 -14 -40 -34 -47 -45 -13 -18 -12 -21 5 -31 28 -15
41 -12 41 8 1 25 55 87 68 78 7 -4 12 -29 12 -57 0 -46 2 -49 25 -49 22 0 25
4 25 38 0 43 -6 55 -37 71 -33 17 -56 14 -92 -13z"/>
<path d="M3654 1994 c9 -22 9 -64 0 -113 -7 -35 5 -51 40 -51 15 0 16 3 6 15
-9 11 -10 29 -2 70 9 55 9 56 -21 77 -29 21 -30 21 -23 2z"/>
<path d="M12442 1971 c-3 -7 2 -19 11 -26 9 -7 14 -14 11 -17 -2 -3 4 -8 16
-11 22 -6 28 8 8 16 -8 4 -7 6 4 6 9 1 19 -7 21 -16 4 -17 5 -17 6 0 0 9 5 17
11 17 5 0 7 -7 4 -15 -4 -10 0 -15 14 -15 11 0 22 8 24 18 4 14 15 18 44 17
21 0 45 -5 53 -9 10 -7 12 -5 6 4 -5 8 -3 11 6 8 16 -5 27 -45 21 -71 -3 -10
-16 -23 -29 -28 -31 -12 -27 -42 7 -49 41 -8 39 -88 -2 -86 -33 2 -36 -31 -4
-44 14 -5 28 -19 30 -32 11 -51 13 -122 6 -149 -6 -19 -4 -30 3 -33 9 -5 9 -8
0 -12 -7 -3 -13 -11 -13 -18 0 -8 -11 -13 -27 -12 -14 0 -28 -5 -30 -11 -3 -7
2 -13 11 -13 9 0 16 -4 16 -10 0 -15 27 -12 44 5 8 8 20 15 26 15 6 0 9 4 6 9
-4 5 0 12 6 14 10 4 10 6 1 6 -7 1 -13 11 -13 24 0 17 2 19 10 7 14 -23 23 12
16 62 -3 24 -8 61 -10 83 -3 22 -5 42 -5 44 -1 2 -9 -3 -18 -10 -17 -13 -17
-12 -3 5 8 10 15 23 17 30 1 6 4 23 7 37 3 15 2 48 -3 74 -6 31 -5 59 1 77 13
36 -6 104 -32 118 -10 5 -75 8 -145 7 -100 -1 -128 -4 -133 -16z"/>
<path d="M4281 1967 c-8 -11 -6 -18 8 -31 16 -15 19 -15 31 -1 10 12 10 18 0
30 -15 19 -24 19 -39 2z"/>
<path d="M7064 1962 c-8 -5 -8 -34 -1 -97 9 -88 27 -140 27 -79 0 17 3 65 6
107 6 62 4 77 -7 77 -8 0 -19 -4 -25 -8z"/>
<path d="M9225 1940 c-18 -20 -18 -21 1 -41 l20 -20 19 21 c18 20 18 21 -1 41
l-20 20 -19 -21z"/>
<path d="M121 1936 c-108 -11 -135 -26 -88 -47 18 -8 59 -8 162 2 142 14 173
27 114 48 -36 13 -46 12 -188 -3z"/>
<path d="M8680 1935 c-11 -13 -10 -19 5 -35 17 -19 20 -19 34 -5 12 11 13 20
5 32 -15 24 -29 26 -44 8z"/>
<path d="M8763 1934 l-22 -16 19 -49 c11 -27 20 -63 20 -79 l0 -30 109 0 c102
0 111 2 125 22 21 30 20 54 -5 95 -18 28 -24 32 -36 21 -10 -8 -13 -23 -9 -47
5 -33 5 -34 -10 -13 -19 28 -31 28 -40 0 l-7 -22 -17 22 c-23 28 -26 28 -44
-5 -12 -23 -15 -24 -16 -9 0 25 -32 126 -39 125 -3 0 -16 -7 -28 -15z"/>
<path d="M9333 1934 l-22 -16 19 -49 c11 -27 20 -63 20 -80 l0 -30 68 1 c98 2
99 2 122 -22 l20 -22 0 22 c0 15 6 22 20 22 11 0 39 9 62 19 24 11 51 22 60
25 9 3 21 14 27 24 9 18 4 22 -49 42 -62 23 -90 22 -90 -5 0 -18 -4 -18 -28
-5 -9 5 -30 14 -45 20 -16 5 -25 14 -22 20 14 22 -37 0 -72 -33 l-22 -20 -11
27 c-5 15 -13 38 -16 51 -7 29 -11 30 -41 9z m131 -115 c-3 -5 -10 -7 -15 -3
-5 3 -7 10 -3 15 3 5 10 7 15 3 5 -3 7 -10 3 -15z m156 11 c9 -6 10 -10 3 -10
-6 0 -18 -3 -27 -6 -11 -4 -16 -1 -16 10 0 18 17 21 40 6z m-86 -9 c3 -4 -6
-6 -19 -3 -14 2 -25 6 -25 8 0 8 39 4 44 -5z"/>
<path d="M11548 1938 c-34 -12 -35 -23 -4 -43 23 -15 27 -15 50 0 32 21 51 15
60 -20 9 -36 -16 -75 -49 -75 -34 0 -31 -14 7 -31 41 -18 56 -60 34 -94 -10
-16 -26 -25 -41 -25 -16 0 -25 -6 -25 -15 0 -8 9 -15 20 -15 50 0 79 -79 43
-116 -15 -15 -33 -16 -171 -9 l-155 7 22 -31 c17 -24 30 -31 55 -31 61 0 216
-59 216 -82 0 -4 -19 -12 -42 -19 -67 -18 -135 -56 -181 -102 l-42 -42 55 -7
c49 -6 57 -4 72 15 9 12 14 25 12 29 -7 11 71 64 122 84 44 17 45 17 70 -7 14
-13 39 -44 56 -69 l30 -45 -5 68 c-3 51 -10 72 -23 82 -27 21 -129 69 -194 91
l-55 19 85 3 c139 4 160 15 160 87 0 37 -5 47 -30 67 l-30 24 30 22 c41 31 41
73 0 103 l-30 22 30 19 c57 34 32 97 -52 133 -42 17 -61 18 -100 3z"/>
<path d="M3734 1925 c-16 -11 -15 -14 4 -33 12 -12 24 -18 26 -13 3 4 28 7 56
5 33 -1 50 2 50 9 0 8 3 8 8 2 9 -13 42 -16 42 -4 0 6 9 5 20 -1 11 -6 20 -7
20 -2 0 5 12 8 27 6 29 -3 44 11 36 33 -6 17 -33 17 -33 1 0 -9 -3 -9 -8 -3
-4 6 -20 11 -37 11 -16 0 -33 -5 -37 -11 -5 -6 -8 -6 -8 0 0 15 -146 15 -166
0z"/>
<path d="M10254 1924 c18 -44 18 -81 1 -98 -25 -24 -40 -15 -43 27 -4 46 -22
39 -22 -8 0 -45 30 -64 66 -40 24 15 24 15 24 -20 0 -31 -3 -35 -25 -35 -14 0
-25 -4 -25 -8 0 -5 11 -14 25 -20 19 -9 25 -19 25 -45 0 -26 -6 -36 -25 -45
-14 -6 -25 -16 -25 -22 0 -6 12 -4 30 5 26 14 34 14 65 1 22 -10 41 -27 52
-50 17 -37 35 -41 26 -6 -7 25 -68 80 -89 80 -11 0 -13 6 -9 20 4 13 0 31 -10
46 -15 24 -15 27 0 44 14 15 15 27 6 72 -12 66 -26 104 -42 114 -9 5 -10 2 -5
-12z"/>
<path d="M7467 1899 c-21 -12 -50 -66 -42 -79 3 -6 -5 -10 -19 -10 -19 0 -32
10 -51 40 -37 59 -88 54 -97 -10 -2 -21 -9 -25 -41 -28 -26 -2 -45 2 -58 14
-18 17 -20 16 -33 -2 -13 -17 -12 -22 10 -45 31 -33 30 -53 -3 -78 l-28 -20
26 -1 c27 0 39 15 39 51 0 15 7 19 32 19 17 0 40 7 50 17 17 15 19 15 36 0 23
-21 46 -22 62 -2 10 13 14 13 28 -1 11 -11 26 -14 51 -10 20 3 55 6 78 6 32
-1 44 4 52 19 16 29 15 31 -30 31 -51 0 -79 15 -79 42 0 19 4 20 54 16 49 -4
54 -3 46 13 -16 28 -51 36 -83 18z"/>
<path d="M10435 1899 c-4 -6 -5 -13 -2 -15 5 -6 90 -5 127 0 14 3 31 5 38 5 7
1 10 6 7 11 -8 14 -162 13 -170 -1z"/>
<path d="M7012 1869 c-11 -17 -9 -24 13 -50 14 -17 25 -35 25 -40 0 -21 -55
-43 -106 -43 -69 0 -98 23 -90 74 l5 35 -14 -30 c-21 -44 -18 -70 9 -102 21
-24 31 -28 79 -28 65 0 102 18 118 57 14 34 7 115 -13 134 -11 12 -15 11 -26
-7z"/>
<path d="M3365 1873 c-61 -15 -72 -67 -19 -89 50 -21 64 -13 64 36 0 22 4 40
9 40 25 0 31 -127 6 -136 -13 -5 -13 -9 -3 -22 9 -10 14 -58 17 -139 3 -122 3
-123 27 -123 24 0 24 1 24 103 0 71 -5 111 -15 131 -14 26 -14 31 0 46 17 19
20 82 4 112 -6 11 -26 26 -44 34 -36 15 -37 15 -70 7z"/>
<path d="M4286 1862 c-15 -17 -15 -20 -1 -32 14 -12 14 -15 0 -30 -14 -15 -13
-18 3 -33 18 -16 20 -16 36 1 15 17 15 20 1 32 -14 12 -14 15 0 30 14 15 13
18 -3 33 -18 16 -20 16 -36 -1z"/>
<path d="M210 1859 c-29 -12 -58 -37 -71 -61 -7 -14 -3 -20 19 -32 27 -14 29
-13 56 20 15 19 33 34 40 34 15 0 27 -68 14 -76 -4 -3 -8 -12 -8 -20 0 -11 9
-14 38 -12 37 3 37 3 40 51 3 41 -1 51 -27 77 -31 31 -58 36 -101 19z"/>
<path d="M12807 1863 c-2 -4 -5 -25 -5 -46 -1 -40 22 -62 38 -36 15 23 7 83
-12 87 -9 2 -18 -1 -21 -5z"/>
<path d="M8595 1840 c-31 -20 -51 -75 -33 -86 16 -10 -13 -24 -48 -24 -33 0
-49 12 -57 45 -2 11 -5 1 -6 -22 -1 -31 5 -49 19 -63 25 -25 55 -25 124 0 46
18 56 26 61 52 5 21 3 33 -6 39 -8 5 -12 22 -11 44 4 40 -2 42 -43 15z"/>
<path d="M8684 1835 c-4 -16 0 -34 10 -50 21 -31 20 -64 -1 -95 l-17 -25 23
20 c50 44 63 97 34 146 -21 36 -41 37 -49 4z"/>
<path d="M9260 1845 c-6 -8 -9 -18 -6 -23 3 -5 -21 -12 -54 -14 -68 -5 -66 -4
-75 -40 -6 -23 -3 -29 16 -37 23 -9 23 -10 -6 -10 -39 -1 -55 14 -56 54 0 26
-2 27 -9 10 -32 -75 23 -142 94 -115 32 12 52 56 35 76 -9 11 -7 14 14 14 13
0 30 -7 37 -15 11 -13 16 -10 40 21 25 30 27 39 18 65 -11 32 -29 37 -48 14z"/>
<path d="M6926 1841 c-3 -5 0 -14 8 -20 10 -8 16 -8 25 3 9 11 8 15 -5 20 -20
8 -22 8 -28 -3z"/>
<path d="M10120 1830 c0 -5 5 -10 10 -10 6 0 10 5 10 10 0 6 -4 10 -10 10 -5
0 -10 -4 -10 -10z"/>
<path d="M10553 1823 c-21 -8 -15 -40 11 -57 28 -18 25 -50 -8 -78 l-21 -17
21 -21 c22 -22 59 -18 50 6 -7 17 18 18 32 2 5 -7 12 -22 14 -33 4 -24 21 -27
26 -4 1 8 -13 35 -33 60 -19 24 -35 51 -35 60 0 8 -5 20 -11 26 -8 8 -8 13 0
17 6 4 11 16 11 27 0 19 -27 25 -57 12z"/>
<path d="M3739 1789 c-8 -5 -24 -9 -37 -9 -18 0 -23 -5 -20 -22 2 -13 5 -25 9
-28 3 -3 18 -22 34 -43 38 -51 57 -34 21 19 -14 21 -23 40 -21 43 3 2 6 2 8 0
1 -2 12 -18 25 -36 12 -18 22 -39 22 -48 0 -8 3 -14 8 -13 4 0 15 -2 25 -7 15
-6 27 1 55 32 43 47 62 55 84 39 18 -13 21 -25 19 -77 l-1 -36 -92 2 c-114 3
-111 3 -103 15 3 6 2 10 -4 10 -5 0 -12 -6 -14 -12 -4 -9 -6 -9 -6 1 -1 11 -5
10 -16 -5 -20 -27 -18 -51 5 -57 11 -3 20 -2 20 1 0 4 52 8 115 8 117 2 142
10 140 44 -1 8 2 21 5 29 10 19 -9 102 -29 127 l-17 21 -52 -19 c-29 -11 -52
-24 -52 -29 0 -5 -7 -9 -15 -9 -8 0 -15 5 -15 11 0 5 -4 7 -10 4 -5 -3 -10
-11 -10 -16 0 -6 5 -7 10 -4 6 3 10 1 10 -4 0 -6 -8 -11 -18 -11 -19 0 -57 54
-48 69 8 13 -18 21 -35 10z"/>
<path d="M9665 1740 c-10 -11 -16 -21 -14 -23 2 -1 11 -8 20 -15 13 -10 19 -8
33 6 15 18 15 20 -2 35 -18 16 -20 16 -37 -3z"/>
<path d="M10366 1751 c-4 -5 -2 -12 3 -15 5 -4 12 -2 15 3 4 5 2 12 -3 15 -5
4 -12 2 -15 -3z"/>
<path d="M10366 1701 c-4 -5 -2 -12 3 -15 5 -4 12 -2 15 3 4 5 2 12 -3 15 -5
4 -12 2 -15 -3z"/>
<path d="M228 1615 c-21 -14 -38 -28 -38 -30 0 -3 11 -12 25 -21 23 -15 27
-15 60 6 l35 22 30 -32 c34 -37 40 -65 25 -122 -10 -39 16 -37 49 3 48 57 26
128 -52 168 -65 33 -93 34 -134 6z"/>
<path d="M3868 1633 c7 -3 16 -2 19 1 4 3 -2 6 -13 5 -11 0 -14 -3 -6 -6z"/>
<path d="M8787 1627 c-15 -11 -17 -24 -11 -115 l7 -102 89 0 88 0 0 59 c0 33
-5 63 -10 66 -19 12 -37 -13 -32 -45 l4 -30 -53 0 -54 0 3 90 c2 49 -1 90 -5
90 -5 0 -17 -6 -26 -13z"/>
<path d="M8681 1616 c-9 -10 -8 -16 4 -26 21 -17 51 6 34 26 -6 8 -15 14 -19
14 -4 0 -13 -6 -19 -14z"/>
<path d="M12564 1592 c-5 -9 -9 -35 -9 -57 0 -33 4 -41 22 -43 20 -3 21 1 20
47 -2 57 -17 80 -33 53z"/>
<path d="M3335 1581 c-6 -11 9 -23 19 -14 9 9 7 23 -3 23 -6 0 -12 -4 -16 -9z"/>
<path d="M4402 1579 c-28 -8 -31 -12 -22 -29 13 -23 9 -23 63 -9 30 7 51 7 70
0 25 -10 34 -22 52 -76 6 -18 9 -17 23 12 14 29 14 34 -2 58 -32 48 -107 66
-184 44z"/>
<path d="M10620 1582 c0 -5 -13 -7 -30 -4 -23 3 -30 0 -30 -13 0 -13 6 -16 23
-11 29 7 67 -18 67 -44 0 -23 16 -35 26 -19 8 14 -16 90 -27 83 -5 -3 -9 0 -9
5 0 6 -4 11 -10 11 -5 0 -10 -4 -10 -8z"/>
<path d="M4297 1552 c-16 -18 -16 -20 1 -35 18 -16 20 -16 35 1 16 18 16 20
-1 35 -18 16 -20 16 -35 -1z"/>
<path d="M7100 1560 c0 -5 5 -10 11 -10 5 0 7 5 4 10 -3 6 -8 10 -11 10 -2 0
-4 -4 -4 -10z"/>
<path d="M9314 1552 c-7 -10 -8 -25 -4 -33 4 -8 11 -24 14 -36 7 -21 4 -23
-26 -23 -19 0 -40 6 -46 12 -16 16 -32 -5 -32 -39 0 -23 1 -23 145 -23 l145 0
0 59 c0 33 -5 63 -10 66 -19 12 -37 -13 -32 -45 4 -30 4 -30 -45 -30 -49 0
-50 1 -61 38 -6 20 -17 45 -24 55 -12 16 -14 16 -24 -1z"/>
<path d="M9623 1552 c-6 -10 -7 -25 -3 -33 4 -8 11 -24 14 -36 7 -21 4 -23
-26 -23 -19 0 -40 6 -46 12 -16 16 -32 -5 -32 -39 0 -22 4 -23 75 -23 l75 0 0
38 c0 31 -32 122 -42 122 -2 0 -8 -8 -15 -18z"/>
<path d="M7193 1539 c-30 -19 -45 -49 -25 -49 5 0 21 -17 35 -37 16 -23 27
-31 27 -22 0 9 -15 31 -32 48 -27 27 -30 34 -18 41 22 13 56 39 50 40 -3 0
-20 -10 -37 -21z"/>
<path d="M7429 1542 c-14 -9 -27 -21 -27 -27 -1 -14 30 -55 42 -55 5 0 -1 11
-14 25 -13 14 -22 26 -19 28 2 2 20 13 39 25 19 12 28 21 20 21 -8 0 -27 -8
-41 -17z"/>
<path d="M3335 1540 c-4 -6 -3 -16 3 -22 6 -6 12 -6 17 2 4 6 3 16 -3 22 -6 6
-12 6 -17 -2z"/>
<path d="M9095 1525 c-26 -25 -32 -63 -15 -96 8 -14 21 -19 55 -19 36 0 48 5
61 25 18 28 12 59 -19 93 -27 29 -52 28 -82 -3z m63 -42 c3 -19 -1 -23 -22
-23 -21 0 -26 5 -26 26 0 21 4 25 23 22 14 -2 23 -11 25 -25z"/>
<path d="M7101 1525 c0 -11 4 -27 9 -35 9 -13 10 -13 9 0 0 8 -4 24 -9 35 l-9
20 0 -20z"/>
<path d="M8714 1528 c-5 -7 -7 -25 -5 -40 l3 -28 -86 0 c-74 0 -87 -3 -96 -19
-14 -27 -13 -31 9 -31 50 0 30 -45 -25 -56 -49 -10 -78 21 -78 84 0 41 -3 49
-13 41 -20 -17 -27 -76 -13 -110 17 -41 47 -59 98 -59 48 0 86 29 98 74 6 25
9 26 76 26 l69 0 -3 62 c-3 60 -17 83 -34 56z"/>
<path d="M3947 1519 c-9 -5 -22 -7 -27 -4 -6 4 -9 1 -8 -7 2 -7 -5 -12 -15
-12 -10 1 -16 0 -13 -3 3 -3 -3 -17 -14 -30 -18 -23 -18 -53 0 -53 5 0 16 -7
24 -15 9 -9 28 -17 43 -18 37 -3 39 -7 37 -76 -1 -46 2 -58 12 -54 8 3 14 1
14 -5 0 -6 -5 -12 -10 -14 -6 -2 -1 -9 11 -17 19 -11 21 -11 16 2 -6 15 8 17
29 5 11 -8 46 27 37 36 -4 3 -4 6 0 6 16 0 37 -35 37 -64 0 -43 -31 -61 -89
-51 -33 5 -41 4 -41 -9 0 -20 56 -35 93 -25 15 4 27 4 27 -2 0 -5 -6 -10 -12
-10 -7 -1 -20 -2 -28 -3 -8 -1 -27 2 -42 6 -16 4 -28 2 -28 -3 0 -15 44 -28
90 -25 52 3 69 28 70 99 0 59 -20 110 -53 131 -32 22 -53 12 -62 -27 -6 -30
-7 -31 -15 -9 -5 12 -8 42 -6 67 3 25 0 45 -5 45 -5 0 -9 8 -9 18 0 10 -5 23
-12 30 -9 9 -9 12 1 12 7 0 9 5 6 10 -3 6 -2 10 2 10 14 0 14 53 1 62 -17 10
-39 10 -61 -3z m5 -57 c-16 -14 -17 -20 -7 -29 7 -6 16 -9 19 -6 3 4 6 2 6 -4
0 -6 -7 -16 -15 -23 -12 -10 -15 -9 -15 6 0 16 -2 17 -10 4 -7 -11 -9 -4 -7
25 1 24 8 42 17 46 25 11 32 -2 12 -19z"/>
<path d="M7605 1500 c-3 -5 1 -10 10 -10 9 0 13 5 10 10 -3 6 -8 10 -10 10 -2
0 -7 -4 -10 -10z"/>
<path d="M7838 1483 c-34 -36 -67 -109 -68 -149 0 -19 8 -38 21 -50 19 -17 41
-19 200 -22 198 -4 200 -3 151 57 l-28 33 -132 8 c-73 4 -136 10 -140 14 -4 4
2 14 13 22 18 14 73 15 115 3 24 -7 23 34 -2 71 -19 29 -31 36 -64 38 -32 2
-44 -2 -66 -25z"/>
<path d="M4393 1453 c-46 -16 -51 -24 -29 -42 10 -8 22 -7 49 4 20 8 39 15 42
15 10 0 5 -66 -6 -77 -17 -17 -1 -33 32 -33 l29 0 0 75 0 75 -37 -1 c-21 0
-57 -7 -80 -16z"/>
<path d="M6910 1450 c-24 -24 -26 -56 -4 -64 29 -11 -12 -46 -55 -47 l-36 -1
30 -7 c17 -4 42 -3 57 2 41 13 51 67 12 67 -21 0 -17 28 6 35 11 3 20 13 20
21 0 19 -6 18 -30 -6z"/>
<path d="M7312 1448 c-14 -14 -16 -48 -3 -48 5 0 7 9 4 20 -4 14 0 20 11 20
20 0 22 -59 4 -79 -11 -11 -10 -12 0 -6 23 12 33 53 20 80 -13 28 -19 30 -36
13z"/>
<path d="M7628 1454 c-5 -4 -8 -15 -8 -25 0 -12 -10 -18 -35 -21 -19 -2 -35 0
-35 4 0 4 -5 8 -11 8 -8 0 -8 -4 0 -14 15 -17 69 -13 89 8 8 7 12 21 10 31 -1
9 -6 13 -10 9z"/>
<path d="M7447 1436 c-3 -8 -22 -18 -41 -22 -20 -3 -36 -11 -36 -16 0 -5 8 -7
18 -4 9 2 32 7 50 11 34 7 37 12 23 33 -7 11 -9 11 -14 -2z"/>
<path d="M7530 1440 c0 -5 5 -10 11 -10 5 0 7 5 4 10 -3 6 -8 10 -11 10 -2 0
-4 -4 -4 -10z"/>
<path d="M7111 1424 c0 -11 3 -14 6 -6 3 7 2 16 -1 19 -3 4 -6 -2 -5 -13z"/>
<path d="M10550 1386 c-20 -42 -20 -66 0 -66 5 0 10 10 12 23 5 35 23 21 23
-18 1 -25 -4 -37 -17 -41 -23 -7 -23 -20 0 -33 14 -8 15 -13 5 -30 -18 -29
-16 -34 12 -29 27 6 57 -14 68 -45 4 -10 11 -16 16 -13 16 10 0 45 -32 72 -26
22 -30 31 -28 72 2 63 3 62 -6 106 -11 55 -29 55 -53 2z"/>
<path d="M237 1412 c-8 -11 27 -45 36 -35 4 3 7 -1 7 -10 0 -10 -8 -17 -19
-17 -31 0 -33 -15 -6 -40 33 -31 33 -60 0 -60 -30 0 -32 -11 -5 -35 11 -10 23
-36 26 -57 6 -34 10 -38 37 -38 29 0 29 1 24 38 -2 21 -1 46 4 55 6 9 5 34 -1
60 -7 32 -6 55 1 77 9 26 9 35 -3 47 -18 18 -93 29 -101 15z"/>
<path d="M7051 1404 c0 -11 3 -14 6 -6 3 7 2 16 -1 19 -3 4 -6 -2 -5 -13z"/>
<path d="M7140 1405 c0 -8 4 -15 10 -15 5 0 7 7 4 15 -4 8 -8 15 -10 15 -2 0
-4 -7 -4 -15z"/>
<path d="M7491 1411 c-10 -7 -8 -10 8 -16 27 -8 36 -2 18 13 -7 6 -18 7 -26 3z"/>
<path d="M7200 1400 c0 -5 7 -7 15 -4 8 4 15 8 15 10 0 2 -7 4 -15 4 -8 0 -15
-4 -15 -10z"/>
<path d="M10102 1403 c-18 -2 -30 -9 -26 -14 7 -12 215 -1 229 12 9 9 -137 10
-203 2z"/>
<path d="M7514 1359 c-3 -5 -4 -9 -2 -10 25 -6 39 -6 43 1 3 4 -4 10 -15 13
-11 3 -23 1 -26 -4z"/>
<path d="M8890 1355 c-11 -13 -11 -19 3 -33 15 -15 19 -15 32 -1 14 14 14 17
-3 32 -17 16 -20 16 -32 2z"/>
<path d="M7027 1349 c-10 -6 -25 -8 -33 -5 -8 3 -14 1 -14 -3 0 -18 27 -18 51
0 26 20 24 24 -4 8z"/>
<path d="M9411 1346 c-17 -20 13 -43 34 -26 12 10 18 10 31 0 12 -11 18 -11
30 2 13 13 13 16 0 28 -13 10 -19 10 -31 0 -12 -10 -19 -10 -27 -2 -15 15 -23
15 -37 -2z"/>
<path d="M10467 1354 c-9 -10 2 -24 19 -24 8 0 14 7 14 15 0 15 -21 21 -33 9z"/>
<path d="M7290 1340 c-9 -6 -10 -10 -3 -10 6 0 15 5 18 10 8 12 4 12 -15 0z"/>
<path d="M10205 1311 c-7 -13 -2 -14 43 -11 30 1 32 0 32 -34 0 -32 -3 -36
-25 -36 -14 0 -25 -4 -25 -8 0 -5 11 -14 25 -20 21 -10 25 -19 25 -52 l0 -40
-25 16 c-29 19 -49 14 -65 -15 -8 -17 -6 -25 11 -42 11 -11 27 -18 35 -15 8 3
21 9 29 12 12 5 15 -2 15 -34 0 -49 -6 -52 -121 -52 -53 0 -89 -4 -89 -10 0
-13 170 -13 203 -1 29 11 40 46 28 89 -6 20 -5 44 1 66 9 29 8 40 -6 61 -17
25 -17 28 0 46 13 15 15 25 8 51 -9 30 -14 33 -51 36 -23 2 -44 -2 -48 -7z
m53 -212 c4 -21 -26 -33 -44 -18 -7 6 -10 17 -7 25 7 20 47 14 51 -7z"/>
<path d="M10125 1290 c-3 -5 -1 -10 4 -10 6 0 11 5 11 10 0 6 -2 10 -4 10 -3
0 -8 -4 -11 -10z"/>
<path d="M4282 1273 c3 -16 18 -18 118 -20 l115 -3 -24 20 c-20 17 -38 20
-118 20 -85 0 -94 -2 -91 -17z"/>
<path d="M10640 1265 c0 -17 5 -25 13 -22 6 2 12 12 12 22 0 10 -6 20 -12 23
-8 2 -13 -6 -13 -23z"/>
<path d="M12508 1250 c-63 -6 -71 -10 -62 -34 4 -11 18 -16 45 -16 24 0 39 -5
39 -12 0 -9 4 -8 10 2 9 13 10 13 10 0 0 -9 3 -11 8 -4 11 17 42 25 42 11 0
-8 3 -9 8 -1 8 12 10 12 90 14 42 2 52 5 52 19 0 10 -8 18 -17 19 -19 2 -110
2 -121 1 -4 -1 -9 0 -12 1 -14 5 -40 5 -92 0z"/>
<path d="M6860 1203 l-38 -38 19 -90 c23 -110 23 -131 3 -139 -35 -13 -44 -7
-44 32 0 41 -33 122 -49 122 -12 0 -61 -69 -61 -86 0 -6 11 -21 25 -34 31 -29
24 -40 -25 -40 -72 0 -70 -4 -70 156 0 97 -4 144 -11 144 -6 0 -31 -14 -55
-32 l-44 -32 5 -105 c3 -81 2 -96 -5 -62 -10 45 -34 91 -49 91 -5 0 -21 -18
-35 -41 -26 -39 -27 -42 -10 -60 16 -18 16 -19 -9 -19 -17 0 -28 -7 -32 -20
-5 -15 -15 -20 -41 -20 -68 0 -95 33 -51 63 l22 15 -41 42 -41 41 -51 -40
c-62 -49 -82 -85 -82 -145 0 -33 6 -52 26 -75 29 -35 51 -38 96 -15 28 15 33
14 62 -1 25 -13 50 -16 110 -13 71 3 80 6 102 31 16 19 24 42 25 70 l2 42 6
-40 c14 -80 43 -105 122 -105 22 0 49 -5 61 -11 17 -9 25 -6 49 19 16 16 33
40 38 53 9 21 10 19 10 -18 1 -42 1 -43 37 -43 45 0 70 13 88 48 l15 27 1 -39
0 -38 98 4 c76 3 108 9 145 27 107 52 154 190 81 237 -34 23 -85 7 -151 -45
l-49 -39 10 61 c6 34 14 65 20 69 11 7 -38 123 -51 123 -5 0 -26 -14 -47 -32
l-39 -32 16 -58 c9 -33 20 -87 23 -121 l7 -62 -32 0 c-31 0 -31 0 -31 53 0 28
-3 69 -6 90 -5 30 -4 37 10 37 9 0 16 6 16 13 0 16 -47 117 -55 117 -3 0 -23
-17 -45 -37z m340 -228 c20 -24 -1 -38 -67 -43 -52 -4 -57 -3 -43 11 18 19 70
47 86 47 6 0 17 -7 24 -15z m-750 -36 c0 -5 -4 -9 -10 -9 -5 0 -10 7 -10 16 0
8 5 12 10 9 6 -3 10 -10 10 -16z m-264 -51 c-34 -23 -47 3 -19 35 18 19 18 18
24 -5 3 -12 1 -26 -5 -30z"/>
<path d="M9041 1203 l-39 -38 19 -90 c26 -125 25 -134 -11 -141 -30 -6 -30 -7
-30 -70 l0 -64 36 0 c86 0 108 43 102 197 -3 62 -2 113 2 113 15 0 20 -33 20
-133 0 -161 29 -189 178 -172 37 5 95 8 130 9 l62 0 0 56 c0 66 -11 80 -61 80
-21 0 -50 5 -65 10 -26 10 -27 12 -10 28 13 13 33 17 86 16 64 -2 70 0 70 18
0 31 -63 88 -96 88 -70 0 -139 -77 -129 -142 4 -33 3 -38 -14 -38 -50 0 -51 3
-51 156 0 109 -3 144 -12 144 -7 0 -31 -14 -52 -30 -22 -17 -43 -30 -47 -30
-3 0 -12 14 -19 30 -7 17 -16 33 -21 36 -5 3 -26 -12 -48 -33z"/>
<path d="M4560 1215 c-10 -12 -10 -18 0 -30 10 -12 10 -18 0 -31 -11 -12 -10
-18 3 -32 16 -15 18 -15 34 0 13 14 14 20 3 32 -10 13 -10 19 0 31 10 12 10
18 0 30 -7 8 -16 15 -20 15 -4 0 -13 -7 -20 -15z"/>
<path d="M7531 1183 c-23 -27 -41 -58 -41 -72 0 -39 41 -275 52 -294 14 -26
29 -17 47 29 25 66 19 384 -9 384 -4 0 -27 -21 -49 -47z"/>
<path d="M7983 1198 l-42 -31 6 -146 c6 -158 17 -195 59 -211 43 -17 152 -12
185 7 27 16 31 16 58 0 56 -33 100 -12 120 57 13 49 -2 98 -45 146 -36 39
-122 100 -142 100 -14 0 -54 -90 -48 -107 3 -7 1 -15 -4 -18 -6 -4 -10 -19
-10 -36 0 -22 -5 -29 -19 -29 -50 0 -51 3 -51 156 0 109 -3 144 -12 144 -7 -1
-32 -15 -55 -32z m232 -242 c0 -25 -16 -30 -40 -11 -17 13 -18 16 -5 25 22 15
45 8 45 -14z m95 -63 c0 -7 -6 -13 -12 -13 -25 0 -37 16 -31 38 5 22 7 22 24
6 11 -9 19 -23 19 -31z"/>
<path d="M10155 1220 c3 -5 8 -10 11 -10 2 0 4 5 4 10 0 6 -5 10 -11 10 -5 0
-7 -4 -4 -10z"/>
<path d="M4383 1213 c-9 -3 -10 -9 -1 -23 9 -14 20 -17 45 -13 l33 6 0 -87 c0
-47 4 -86 9 -86 5 0 16 -3 25 -6 11 -4 16 0 16 14 0 30 15 35 35 12 24 -26 22
-67 -4 -93 -16 -17 -33 -22 -66 -21 -25 0 -45 -3 -45 -7 0 -14 77 -32 105 -25
93 24 101 165 10 197 -35 13 -35 13 -35 76 l0 63 -57 -1 c-32 0 -63 -3 -70 -6z"/>
<path d="M10155 1181 c-3 -5 -1 -12 5 -16 5 -3 10 1 10 9 0 18 -6 21 -15 7z"/>
<path d="M9613 1168 c-23 -31 -63 -124 -63 -149 0 -47 51 -79 105 -65 14 4 25
2 25 -3 0 -11 -50 -21 -111 -21 l-49 0 0 -65 0 -65 51 0 c125 0 188 90 159
228 -11 50 -45 106 -59 98 -4 -3 -7 8 -6 22 0 20 -6 28 -21 30 -11 2 -25 -3
-31 -10z m28 -56 c-7 -2 -18 1 -23 6 -8 8 -4 9 13 5 13 -4 18 -8 10 -11z m-7
-58 c25 -9 19 -24 -9 -24 -24 0 -32 10 -18 23 8 8 8 8 27 1z"/>
<path d="M11592 1135 c-31 -14 -52 -47 -52 -83 0 -10 25 -33 60 -55 62 -39 69
-52 50 -101 -8 -21 -16 -26 -45 -26 -39 0 -45 -9 -15 -27 11 -7 26 -25 34 -41
19 -36 36 -162 36 -263 0 -43 3 -79 6 -79 19 0 43 24 53 51 25 73 5 232 -37
297 -13 21 -14 26 -3 30 50 17 70 102 32 136 -19 17 -19 18 5 54 33 48 28 72
-21 99 -46 26 -58 27 -103 8z m94 -41 c-3 -9 -6 -19 -6 -23 0 -5 -9 -20 -21
-35 -17 -21 -24 -24 -40 -16 -25 14 -24 45 1 70 25 25 75 28 66 4z"/>
<path d="M12669 1143 c-1 -5 -1 -12 0 -16 1 -4 -6 -21 -14 -37 -11 -22 -12
-30 -2 -33 7 -3 5 -6 -5 -6 -26 -1 -40 -35 -28 -65 5 -14 14 -26 19 -26 11 0
23 29 16 40 -2 4 4 15 15 25 11 10 20 15 20 10 0 -4 6 -2 14 4 10 8 16 9 21 1
8 -14 -4 -32 -17 -24 -6 4 -9 -6 -7 -27 4 -58 0 -69 -27 -79 -26 -10 -31 -44
-6 -46 6 -1 17 -2 23 -3 15 -1 5 -76 -13 -95 -32 -34 -48 -57 -48 -71 0 -17
54 -48 65 -37 5 4 5 -1 2 -10 -4 -12 -1 -18 9 -18 14 0 14 -2 -1 -16 -8 -9
-13 -24 -10 -34 7 -22 -17 -28 -110 -25 -103 4 -102 4 -87 14 10 6 7 10 -12
13 -16 3 -25 1 -24 -6 1 -6 -3 -21 -10 -33 -17 -30 -3 -36 77 -33 81 3 164 8
171 11 3 1 9 1 14 0 4 -1 16 8 26 19 14 16 17 32 13 63 -2 23 -5 48 -5 55 -2
17 -15 15 -27 -5 -6 -10 -11 -14 -11 -10 0 5 12 24 27 44 22 28 25 38 15 53
-7 12 -8 29 -2 49 5 17 9 34 10 36 0 3 -6 18 -14 34 -11 20 -12 31 -4 39 17
17 19 92 3 98 -8 3 -12 11 -9 18 3 7 -2 26 -11 42 -8 17 -11 30 -5 32 14 5 13
35 -2 50 -13 13 -47 16 -49 5z m41 -83 c0 -5 -8 -10 -17 -10 -15 0 -16 2 -3
10 19 12 20 12 20 0z m-10 -367 c0 -21 -3 -24 -9 -14 -5 8 -7 20 -4 28 8 21
13 15 13 -14z"/>
<path d="M7720 1080 c-11 -21 -20 -45 -20 -52 1 -7 24 -29 52 -48 81 -55 77
-64 -31 -58 l-91 5 0 -41 c1 -47 15 -71 54 -86 64 -24 145 -1 170 49 21 39 20
123 0 164 -20 39 -84 107 -101 107 -7 0 -22 -18 -33 -40z"/>
<path d="M10540 1105 c0 -8 9 -15 20 -15 17 0 20 -7 20 -49 0 -46 -2 -50 -37
-71 -28 -16 -33 -24 -23 -30 8 -5 17 -7 21 -4 4 2 10 0 14 -6 9 -14 55 -12 56
3 4 41 -4 155 -12 170 -12 21 -59 23 -59 2z"/>
<path d="M280 1091 c0 -31 -20 -39 -140 -51 -119 -12 -130 -15 -130 -30 0 -25
41 -29 157 -16 153 17 173 28 173 92 0 20 -5 24 -30 24 -23 0 -30 -5 -30 -19z"/>
<path d="M10120 1100 c0 -5 5 -10 10 -10 6 0 10 5 10 10 0 6 -4 10 -10 10 -5
0 -10 -4 -10 -10z"/>
<path d="M10639 1105 c-1 -3 -2 -15 -2 -27 -2 -33 25 -28 29 5 2 18 -2 27 -12
27 -8 0 -14 -2 -15 -5z"/>
<path d="M8670 1044 l-24 -47 22 -15 c26 -17 28 -37 5 -47 -12 -4 -23 1 -32
14 -19 29 -49 27 -61 -4 -11 -29 -18 -33 -16 -9 0 9 -7 21 -17 28 -15 9 -21 7
-35 -10 -14 -16 -23 -19 -47 -13 -16 5 -31 7 -33 5 -10 -11 24 -93 49 -119 29
-29 33 -29 103 -25 87 6 130 27 157 78 l19 35 0 -58 c0 -42 4 -57 14 -57 8 0
16 -6 19 -14 4 -9 22 -14 55 -14 47 0 53 3 84 42 29 36 33 49 36 113 4 75 -9
133 -34 154 -13 11 -19 9 -34 -11 -44 -58 -46 -68 -17 -98 15 -16 27 -31 27
-35 0 -4 -34 -7 -75 -7 l-75 0 0 40 c0 45 -33 120 -53 120 -6 0 -23 -21 -37
-46z m-123 -140 c-3 -3 -12 -4 -19 -1 -8 3 -5 6 6 6 11 1 17 -2 13 -5z"/>
<path d="M12796 1065 c-11 -28 -7 -35 20 -35 21 0 25 4 22 22 -4 27 -33 36
-42 13z"/>
<path d="M7342 1027 c-24 -28 -42 -88 -42 -136 0 -58 22 -81 79 -81 34 0 34 0
15 -21 -10 -12 -49 -39 -86 -61 -38 -22 -68 -44 -68 -49 0 -17 21 -19 76 -4
51 13 60 13 80 0 20 -13 23 -12 37 9 25 37 37 97 37 181 0 64 -5 90 -22 125
-20 39 -28 45 -59 48 -21 2 -40 -2 -47 -11z m45 -105 c-34 -4 -48 5 -27 18 8
5 22 4 34 -3 20 -11 20 -12 -7 -15z"/>
<path d="M189 941 l-24 -19 28 -13 c20 -9 33 -9 51 -1 22 10 24 9 30 -35 3
-25 6 -68 6 -94 0 -48 1 -49 30 -49 l30 0 0 68 c0 82 -15 138 -40 152 -30 16
-86 12 -111 -9z"/>
<path d="M12551 926 c-7 -8 -10 -24 -6 -35 3 -10 1 -22 -5 -26 -8 -5 -6 -13 6
-26 24 -26 41 -9 41 41 0 46 -18 68 -36 46z"/>
<path d="M125 890 c-18 -20 -18 -21 1 -41 l20 -20 19 21 c18 20 18 21 -1 41
l-20 20 -19 -21z"/>
<path d="M10254 885 c18 -46 18 -82 1 -99 -25 -24 -40 -15 -43 27 -4 46 -22
39 -22 -8 0 -45 30 -64 66 -40 l24 15 0 -58 c0 -44 5 -63 18 -75 22 -20 42 -6
42 30 0 27 11 29 32 6 25 -29 38 -89 26 -124 -14 -42 -51 -48 -125 -23 -17 6
-17 6 -2 -10 9 -10 35 -20 57 -23 36 -5 45 -2 72 25 36 36 38 68 9 129 -24 50
-53 70 -75 52 -8 -6 -15 -21 -15 -33 -1 -11 -5 11 -10 49 -10 90 -27 151 -47
167 -14 11 -15 10 -8 -7z"/>
<path d="M11495 751 l-29 -31 30 -30 30 -30 27 28 27 28 -28 33 -27 32 -30
-30z"/>
<path d="M280 652 c0 -64 2 -70 26 -81 32 -14 40 -9 47 29 4 16 11 30 16 30
12 0 31 -64 31 -107 0 -83 -41 -110 -111 -74 -23 12 -44 20 -46 17 -12 -12 9
-36 46 -56 55 -27 113 -26 147 3 71 62 18 270 -69 270 -20 0 -27 5 -27 18 0
14 -7 19 -30 19 l-30 0 0 -68z"/>
<path d="M9128 680 c-27 -21 -28 -24 -27 -118 0 -133 11 -192 39 -214 27 -22
98 -24 125 -4 16 12 22 12 42 -1 20 -14 26 -14 45 -1 19 13 25 13 49 -1 25
-14 29 -14 47 2 17 16 21 16 32 2 18 -22 48 -18 73 9 l21 24 27 -29 c34 -37
72 -38 95 -4 22 33 14 116 -13 153 -40 53 -123 34 -123 -29 0 -31 -23 -59 -48
-59 -23 0 -36 11 -49 40 -10 24 -11 24 -18 5 -20 -50 -48 -53 -67 -6 l-11 26
-10 -27 c-6 -15 -17 -30 -25 -33 -19 -7 -42 13 -42 36 0 27 -17 23 -24 -6 -8
-30 -47 -42 -81 -27 -24 11 -25 15 -27 148 l-3 136 -27 -22z"/>
<path d="M8881 642 c-99 -36 -107 -56 -57 -136 46 -70 46 -83 -1 -88 -59 -7
-83 1 -83 28 0 29 -7 30 -35 4 -29 -28 -112 -40 -267 -40 l-128 0 0 -41 0 -41
158 3 c137 4 163 7 201 26 l44 22 17 -22 c27 -32 102 -29 137 5 36 36 42 101
14 156 -12 23 -21 46 -21 51 0 6 25 18 55 27 50 16 55 20 55 46 0 15 -3 28 -7
27 -5 0 -41 -12 -82 -27z"/>
<path d="M9347 632 c-16 -18 -16 -20 1 -35 18 -16 20 -16 35 1 16 18 16 20 -1
35 -18 16 -20 16 -35 -1z"/>
<path d="M11492 617 c-28 -30 -28 -38 3 -67 l25 -24 30 29 30 29 -27 28 c-32
34 -34 34 -61 5z"/>
<path d="M8427 573 c-15 -16 -15 -18 0 -35 15 -17 17 -17 35 -2 17 16 19 16
36 1 17 -15 19 -15 35 0 15 16 15 18 0 35 -15 17 -17 17 -35 2 -17 -16 -19
-16 -36 -1 -17 15 -19 15 -35 0z"/>
<path d="M9310 574 c-11 -12 -11 -18 2 -30 13 -13 19 -14 36 -3 18 11 24 10
40 -4 18 -16 20 -16 35 1 16 18 16 20 -3 37 -19 17 -21 17 -39 1 -16 -15 -19
-15 -31 -1 -16 19 -24 19 -40 -1z"/>
<path d="M12525 570 c4 -6 11 -8 16 -5 14 9 11 15 -7 15 -8 0 -12 -5 -9 -10z"/>
<path d="M9013 506 l-21 -33 29 -22 c17 -12 35 -34 42 -48 11 -24 8 -29 -31
-63 -23 -21 -67 -48 -97 -60 -30 -12 -53 -26 -50 -30 3 -5 30 -12 60 -15 68
-9 94 5 124 68 36 73 25 186 -21 224 -10 9 -18 4 -35 -21z"/>
<path d="M12666 451 c-4 -5 -2 -19 2 -31 12 -32 3 -80 -15 -80 -8 0 -17 9 -20
20 -3 11 -10 17 -15 14 -6 -4 -8 2 -3 15 4 15 2 21 -8 21 -23 0 -28 -40 -10
-71 22 -36 71 -49 89 -24 8 10 11 22 7 28 -3 6 -2 7 4 4 6 -4 9 -34 9 -68 -2
-54 1 -65 23 -85 14 -13 35 -24 46 -24 17 0 17 -2 5 -10 -13 -9 -13 -10 1 -10
8 0 22 15 31 32 15 32 15 32 27 10 39 -73 11 -115 -70 -106 -45 5 -60 -2 -42
-20 4 -4 8 -15 8 -24 0 -17 8 -19 88 -26 48 -3 65 18 72 90 8 83 -27 148 -86
159 -15 3 -21 -3 -26 -26 -7 -37 -23 -48 -24 -17 -3 47 -6 83 -8 88 -1 3 -4
17 -6 31 -2 14 -10 42 -19 62 -8 20 -12 37 -8 37 12 0 -22 20 -35 20 -6 0 -14
-4 -17 -9z m135 -403 c16 0 29 -3 29 -8 0 -5 -12 -7 -27 -6 -16 2 -34 4 -40 5
-7 0 -13 6 -13 12 0 5 5 7 11 3 7 -4 25 -7 40 -6z"/>
<path d="M12726 165 c25 -19 40 -19 20 0 -8 8 -20 15 -27 15 -7 0 -4 -6 7 -15z"/>
</g>
</svg>
