<?xml version="1.0" encoding="utf-8"?>
<!-- Generator: Adobe Illustrator 18.0.0, SVG Export Plug-In . SVG Version: 6.00 Build 0)  -->
<!DOCTYPE svg PUBLIC "-//W3C//DTD SVG 1.1//EN" "http://www.w3.org/Graphics/SVG/1.1/DTD/svg11.dtd">
<svg version="1.1" id="Layer_1" xmlns="http://www.w3.org/2000/svg" xmlns:xlink="http://www.w3.org/1999/xlink" x="0px" y="0px"
	 viewBox="0 0 1000 1000" enable-background="new 0 0 1000 1000" xml:space="preserve">
<path fill="#767677" d="M852.6,599L647,557.8V353c0-27-21.9-49-49-49h-98c-27.1,0-49,22-49,49v245h-98c-17,0-32.8,8.8-41.7,23.3
	c-8.9,14.4-9.7,32.5-2.2,47.7l147,294c8.3,16.6,25.3,27.1,43.8,27.1h343c27.1,0,49-21.9,49-49V647C892,623.6,875.5,603.5,852.6,599z
	"/>
<path fill="#767677" d="M794,10H206c-54,0-98,44-98,98v343c0,54,44,98,98,98h147v-98H206V108h588v343h98V108C892,54,848,10,794,10z"
	/>
</svg>
