<?xml version="1.0" encoding="utf-8"?>
<!-- Generator: Adobe Illustrator 18.0.0, SVG Export Plug-In . SVG Version: 6.00 Build 0)  -->
<!DOCTYPE svg PUBLIC "-//W3C//DTD SVG 1.1//EN" "http://www.w3.org/Graphics/SVG/1.1/DTD/svg11.dtd">
<svg version="1.1" id="Layer_1" xmlns="http://www.w3.org/2000/svg" xmlns:xlink="http://www.w3.org/1999/xlink" x="0px" y="0px"
	 viewBox="0 0 1000 1000" enable-background="new 0 0 1000 1000" xml:space="preserve">
<rect x="6.2" y="-13.1" fill="none" width="1026.2" height="1026.2"/>
<path fill="#777777" d="M861.4,115.3H134.5c-47.2,0-85.5,38.3-85.5,85.5v598.6c0,47.2,38.3,85.5,85.5,85.5h726.9
	c47.2,0,85.5-38.3,85.5-85.5V200.8C946.9,153.6,908.6,115.3,861.4,115.3z M348.3,200.8h85.5v85.5h-85.5V200.8z M220,799.4h-85.5
	v-85.5H220V799.4z M220,286.3h-85.5v-85.5H220V286.3z M433.8,799.4h-85.5v-85.5h85.5V799.4z M647.6,799.4h-85.5v-85.5h85.5V799.4z
	 M391.1,628.4V371.8l256.6,128.3L391.1,628.4z M647.6,286.3h-85.5v-85.5h85.5V286.3z M861.4,799.4h-85.5v-85.5h85.5V799.4z
	 M861.4,286.3h-85.5v-85.5h85.5V286.3z"/>
</svg>
