<?xml version="1.0" encoding="utf-8"?>
<!-- Generator: Adobe Illustrator 18.0.0, SVG Export Plug-In . SVG Version: 6.00 Build 0)  -->
<!DOCTYPE svg PUBLIC "-//W3C//DTD SVG 1.1//EN" "http://www.w3.org/Graphics/SVG/1.1/DTD/svg11.dtd">
<svg version="1.1" id="Layer_1" xmlns="http://www.w3.org/2000/svg" xmlns:xlink="http://www.w3.org/1999/xlink" x="0px" y="0px"
	 viewBox="0 0 1000 1000" enable-background="new 0 0 1000 1000" xml:space="preserve">
<g>
	<path fill="#777777" d="M926.7,589.7l-151.8,45.6v-59.9c0-54.9-44.9-99.8-99.8-99.8H276c-54.9,0-99.8,44.9-99.8,99.8v299.3
		c0,54.9,44.9,99.8,99.8,99.8h399.1c54.9,0,99.8-44.9,99.8-99.8v-59.9l151.8,45.6c26.3,7.9,47.8-8.2,47.8-35.6V625.2
		C974.4,597.8,952.9,581.8,926.7,589.7z"/>
	<path fill="#777777" d="M425.7,226.1c0-110.2-89.4-199.6-199.6-199.6S26.6,115.9,26.6,226.1s89.4,199.6,199.6,199.6
		S425.7,336.3,425.7,226.1z"/>
	<path fill="#777777" d="M675.1,425.7c110.2,0,199.6-89.4,199.6-199.6S785.3,26.6,675.1,26.6s-199.6,89.4-199.6,199.6
		S564.9,425.7,675.1,425.7z"/>
</g>
</svg>
