<?xml version="1.0" encoding="utf-8"?>
<!-- Generator: Adobe Illustrator 18.0.0, SVG Export Plug-In . SVG Version: 6.00 Build 0)  -->
<!DOCTYPE svg PUBLIC "-//W3C//DTD SVG 1.1//EN" "http://www.w3.org/Graphics/SVG/1.1/DTD/svg11.dtd">
<svg version="1.1" id="Layer_1" xmlns="http://www.w3.org/2000/svg" xmlns:xlink="http://www.w3.org/1999/xlink" x="0px" y="0px"
	 viewBox="0 0 1000 1000" enable-background="new 0 0 1000 1000" xml:space="preserve">
<g>
	<path fill="#777777" d="M424.8,222.9C424.8,111.4,334.4,21,222.9,21S21,111.4,21,222.9s90.4,201.9,201.9,201.9
		S424.8,334.4,424.8,222.9z"/>
	<path fill="#777777" d="M677.2,424.8c111.5,0,201.9-90.4,201.9-201.9S788.7,21,677.2,21s-201.9,90.4-201.9,201.9
		S565.7,424.8,677.2,424.8z"/>
</g>
<path fill="#777777" d="M931.6,590.7l-153.5,46.1v-60.6c0-55.5-45.4-100.9-100.9-100.9H273.4c-55.5,0-100.9,45.4-100.9,100.9v302.8
	c0,55.5,45.4,100.9,100.9,100.9h403.8c55.5,0,100.9-45.4,100.9-100.9v-60.6l153.5,46.1c26.6,8,48.4-8.3,48.4-36V626.7
	C980,598.9,958.2,582.8,931.6,590.7z M402.7,852.6V602.7l208.2,124.9L402.7,852.6z"/>
</svg>
