<?xml version="1.0" encoding="utf-8"?>
<!-- Generator: Adobe Illustrator 18.0.0, SVG Export Plug-In . SVG Version: 6.00 Build 0)  -->
<!DOCTYPE svg PUBLIC "-//W3C//DTD SVG 1.1//EN" "http://www.w3.org/Graphics/SVG/1.1/DTD/svg11.dtd">
<svg version="1.1" id="Layer_1" xmlns="http://www.w3.org/2000/svg" xmlns:xlink="http://www.w3.org/1999/xlink" x="0px" y="0px"
	 viewBox="0 0 1000 1000" enable-background="new 0 0 1000 1000" xml:space="preserve">
<g>
	<path fill="#777777" d="M899.1,100.9H100.9c-49,0-88.7,39.7-88.7,88.7v620.8c0,49,39.7,88.7,88.7,88.7h798.2
		c49,0,88.7-39.7,88.7-88.7V189.6C987.8,140.6,948.1,100.9,899.1,100.9z M500,810.4c-171.2,0-310.4-139.2-310.4-310.4
		c0-171.1,139.3-310.4,310.4-310.4S810.4,328.9,810.4,500C810.4,671.2,671.2,810.4,500,810.4z"/>
	<path fill="#777777" d="M500,278.3c-122.3,0-221.7,99.5-221.7,221.7c0,122.3,99.5,221.7,221.7,221.7S721.7,622.3,721.7,500
		C721.7,377.7,622.3,278.3,500,278.3z M411.3,633V367L633,500L411.3,633z"/>
</g>
</svg>
